<svg width="228" height="96" viewBox="0 0 228 96" fill="none" xmlns="http://www.w3.org/2000/svg">
<path d="M47.0188 55.3931C51.3842 50.1466 50.6746 42.3492 45.4356 37.9751L43.5392 36.3921L40.3777 40.1928L42.2741 41.7758C45.4135 44.3954 45.8393 49.0831 43.2235 52.2271L41.6427 54.1287L45.438 57.2947L47.0188 55.3931Z" fill="white"/>
<path d="M34.3654 31.9592C36.9813 28.8152 41.6623 28.3888 44.8018 31.0084L54.2912 38.9234L57.4527 35.1227L47.9633 27.2077C42.7243 22.836 34.9356 23.5442 30.5702 28.7932C26.2243 34.0176 26.9095 41.766 32.0824 46.1475L32.1411 46.1989C32.146 46.2014 32.1509 46.2063 32.1558 46.2112L37.8475 50.9602L41.009 47.1595L35.3075 42.4007C32.1778 39.7811 31.7521 35.0982 34.3654 31.9567" fill="white"/>
<path d="M58.7202 68.3782C53.4813 64.0065 45.695 64.7171 41.3271 69.9636L39.7463 71.8627L43.5416 75.0288L45.1224 73.1296C47.7382 69.9857 52.4193 69.5593 55.5587 72.1788L57.4576 73.7619L60.6191 69.9612L58.7202 68.3782Z" fill="white"/>
<path d="M35.3197 81.0472C32.1803 78.4276 31.7545 73.7398 34.3703 70.5959L42.2741 61.0929L38.4788 57.9269L30.575 67.4298C26.2096 72.6763 26.9168 80.4762 32.1582 84.8479C37.3752 89.1999 45.1126 88.5138 49.4878 83.3335L49.5367 83.2771C49.5391 83.2722 49.544 83.2673 49.5489 83.2624L54.2912 77.5601L50.4959 74.3941L45.7439 80.1037C43.1281 83.2379 38.4519 83.6643 35.3148 81.0472" fill="white"/>
<path d="M71.6868 56.6576C67.3214 61.904 68.031 69.7015 73.27 74.0756L75.1664 75.6586L78.3279 71.8579L76.4315 70.2749C73.292 67.6553 72.8662 62.9675 75.4821 59.8236L77.0628 57.922L73.2675 54.756L71.6868 56.6576Z" fill="white"/>
<path d="M84.3377 80.0915C81.7218 83.2354 77.0408 83.6618 73.9013 81.0423L64.4119 73.1272L61.2504 76.9279L70.7398 84.843C75.9788 89.2146 83.7675 88.5064 88.1329 83.2575C92.4788 78.0331 91.7936 70.2847 86.6207 65.9032L86.562 65.8517C86.5571 65.8493 86.5522 65.8444 86.5473 65.8395L80.8556 61.0905L77.6941 64.8911L83.3956 69.65C86.5253 72.2695 86.951 76.9524 84.3377 80.0939" fill="white"/>
<path d="M59.9829 43.6749C65.2219 48.0466 73.0082 47.3359 77.376 42.0894L78.9568 40.1903L75.1615 37.0243L73.5808 38.9234C70.9649 42.0674 66.2838 42.4938 63.1444 39.8742L61.2455 38.2912L58.084 42.0919L59.9829 43.6749Z" fill="white"/>
<path d="M83.3834 31.0059C86.5229 33.6255 86.9486 38.3133 84.3328 41.4572L76.4291 50.9602L80.2243 54.1262L88.1281 44.6232C92.4935 39.3768 91.7863 31.5769 86.5449 27.2052C81.3279 22.8532 73.5905 23.5393 69.2153 28.7196L69.1664 28.776C69.164 28.7809 69.1591 28.7858 69.1542 28.7907L64.4119 34.493L68.2072 37.659L72.9592 31.9494C75.5751 28.8152 80.2512 28.3888 83.3883 31.0059" fill="white"/>
<path d="M177.962 36.2009H170.051V52.0433H158.66C156.218 52.0433 154.231 50.0535 154.231 47.6079V36.2009H146.32V47.6079C146.32 54.4227 151.855 59.9657 158.66 59.9657H170.051V75.8105H177.962V59.9657H181.916V52.0433H177.962V36.2009Z" fill="white"/>
<path d="M198.21 44.1209H221.467V36.1985H198.21C191.405 36.1985 185.87 41.7415 185.87 48.5563V75.808H193.781V59.9632H205.647V52.0408H193.781V48.5563C193.781 46.1107 195.768 44.1209 198.21 44.1209Z" fill="white"/>
<path d="M146.317 71.8481C146.317 60.9116 137.464 52.0457 126.543 52.0433H122.589V59.9657H126.543C133.084 59.9657 138.409 65.2955 138.409 71.8481V75.808H146.32V71.8481H146.317Z" fill="white"/>
<path d="M106.767 56.0033C106.767 49.4507 112.089 44.1209 118.632 44.1209H138.409V36.1985H118.632C107.711 36.1985 98.8556 45.0668 98.8556 56.0033C98.8556 66.9398 107.628 75.7223 118.48 75.8031L118.603 75.8056C118.613 75.8056 118.622 75.8056 118.632 75.8056H130.498V67.8832H118.615C112.082 67.8709 106.767 62.546 106.767 56.0008" fill="white"/>
</svg>
